<svg width="361" height="294" viewBox="0 0 361 294" fill="none" xmlns="http://www.w3.org/2000/svg">
<g clip-path="url(#clip0_1_2)">
<g clip-path="url(#clip1_1_2)">
<path d="M36.8927 204.457C43.374 205.848 48.2522 211.609 48.2522 218.486C48.2522 226.404 41.7915 232.85 33.8584 232.85H4.4446e-05V231.193C2.29121 231.193 4.14204 229.343 4.14204 227.069V185.195C4.14204 182.921 2.36002 180.88 0.0688483 180.01L-0.00683594 179.414H10.7678L31.1475 179.421C38.4476 179.421 44.3785 185.332 44.3785 192.593C44.3785 197.813 41.3099 202.313 36.8858 204.443L36.8927 204.457ZM28.2922 231.199C34.9593 231.199 40.9246 226.363 41.5713 219.76C42.3144 212.184 36.3216 205.786 28.877 205.786H26.118H22.3682C17.3868 205.786 13.0384 203.026 10.7816 198.964V228.864C10.7816 230.158 11.8343 231.206 13.1347 231.206H28.2922V231.199ZM10.7885 192.607C10.7885 198.964 15.9832 204.128 22.3613 204.128H26.2005C32.5855 204.128 37.7596 198.957 37.7596 192.607C37.7596 186.257 32.5855 181.085 26.2005 181.085H22.3613C15.9763 181.085 10.7885 186.257 10.7885 192.607Z" fill="#3D4C18"/>
<path d="M84.3674 233.583C71.1571 235.241 58.8412 224.247 56.9216 209.067C54.9951 193.888 64.1804 180.195 77.3976 178.537C90.6079 176.879 102.924 187.873 104.843 203.053C106.77 218.232 97.5846 231.926 84.3674 233.583ZM84.8835 231.782C97.1099 229.898 100.151 217.609 97.9424 203.423C95.7338 189.237 89.1011 178.441 76.8747 180.325C64.6483 182.209 61.6071 194.497 63.8157 208.684C66.0243 222.87 72.657 233.665 84.8835 231.775V231.782Z" fill="#3D4C18"/>
<path d="M159.591 179.359V181.01H159.542C157.74 181.01 156.281 182.462 156.281 184.257V227.596C156.281 229.871 157.238 231.09 159.522 231.09V232.741H146.738V231.056C148.623 231.056 150.151 229.535 150.151 227.658V214.088C150.151 209.184 148.135 204.498 144.578 201.108L125.464 182.9C124.948 182.414 124.095 182.77 124.095 183.483V227.829C124.095 229.624 125.567 231.097 127.377 231.097V232.748H114.159V231.097H114.208C116.01 231.097 117.469 229.645 117.469 227.85V185.14C117.469 182.866 115.618 181.017 113.327 181.017V179.304H122.45C123.503 179.304 124.521 179.708 125.285 180.434L148.795 202.834C149.311 203.313 150.151 202.964 150.151 202.258V184.27C150.151 182.469 148.678 181.024 146.876 181.024V179.373H159.597L159.591 179.359Z" fill="#3D4C18"/>
<path d="M208.159 227.069H209.824V232.844H167.916V231.186C170.2 231.186 172.058 229.343 172.058 227.062V185.195C172.058 182.921 170.207 181.071 167.916 181.071V179.421H178.69V179.448H209.817V185.223H208.152C208.152 182.948 206.301 181.099 204.01 181.099H181.683C180.032 181.099 178.69 182.435 178.69 184.079V202.224C178.69 203.272 179.544 204.122 180.596 204.122H193.476C194.797 204.122 195.871 203.053 195.871 201.738H197.536V208.218H195.871V208.149C195.871 206.834 194.797 205.766 193.476 205.766H180.596C179.544 205.766 178.69 206.615 178.69 207.663V229.302C178.69 230.35 179.544 231.2 180.596 231.2H204.017C206.301 231.2 208.159 229.357 208.159 227.076V227.069Z" fill="#3D4C18"/>
<path d="M256.274 217.171H261.372C258.262 225.863 251.265 232.343 242.458 233.453C229.275 235.111 216.994 224.137 215.081 208.999C213.161 193.854 222.326 180.195 235.502 178.537C244.13 177.455 252.359 181.804 257.56 189.175H257.519C257.952 189.791 258.214 190.545 258.214 191.36C258.214 193.785 255.943 195.682 253.405 195.059C252.132 194.744 251.079 193.73 250.714 192.477C250.487 191.716 250.508 190.983 250.694 190.326C250.996 189.285 250.914 188.168 250.301 187.271C246.772 182.133 241.735 179.284 234.993 180.325C222.794 182.202 219.759 194.463 221.961 208.615C224.163 222.767 230.782 233.535 242.974 231.652C248.808 230.747 252.538 227.466 254.602 222.733C255.4 220.911 253.989 218.876 251.994 218.876V217.164H256.281L256.274 217.171Z" fill="#3D4C18"/>
<path d="M312.094 228.186C312.769 229.994 314.502 231.193 316.443 231.193V232.844H303.569V231.193H304.588C305.558 231.193 306.225 230.227 305.888 229.329L298.1 208.506L295.175 216.486C293.648 220.548 289.767 223.062 285.653 223.062C284.476 223.062 283.279 222.856 282.11 222.418C278.711 221.151 276.413 218.26 275.731 214.958L270.248 229.624C269.959 230.391 270.53 231.2 271.349 231.2H272.711V232.857H264.578V231.2H264.64C266.581 231.2 268.314 230.001 268.989 228.192L285.364 184.401C285.969 182.791 284.772 181.071 283.045 181.071V179.421H287.194V179.537L287.229 179.448L287.215 179.428H291.942C293.084 179.428 294.109 180.133 294.508 181.202L312.094 228.199V228.186ZM294.584 213.294C296.276 208.663 296.263 203.58 294.536 198.964L288.859 183.798C288.605 183.12 287.648 183.12 287.394 183.798L283.142 195.176L277.72 209.978C276.075 214.355 278.312 219.233 282.694 220.87C287.084 222.507 291.983 220.281 293.62 215.917L294.577 213.301L294.584 213.294Z" fill="#3D4C18"/>
<path d="M351.347 202.039C357.436 205.183 361.007 210.595 361.007 216.568C361.007 225.898 352.124 233.474 341.205 233.474C327.045 233.474 321.403 225.384 321.403 217.479V215.568C321.403 214.753 322.064 214.088 322.889 214.088H330.905V215.746C329.385 215.746 328.229 216.952 328.236 218.404C328.277 226.316 337.421 230.898 344.576 230.898C351.732 230.898 357.553 226.226 357.553 220.486C357.587 214.225 351.966 209.766 348.237 207.827L336.038 202.3C332.46 200.923 329.625 198.196 328.408 194.86C327.217 191.614 327.609 188.189 329.508 185.209C331.325 182.366 334.318 180.291 337.937 179.366C345.031 177.571 352.558 180.804 355.227 186.62C355.585 187.312 355.819 188.093 355.819 188.928C355.819 191.888 353.163 194.23 350.101 193.717C348.209 193.401 346.627 191.915 346.193 190.052C345.946 188.99 346.063 187.99 346.427 187.113C347.225 185.209 345.512 183.777 344.026 182.942C341.398 181.455 338.363 181.044 335.453 181.948C333.203 182.647 331.187 184.346 330.733 186.736C330.238 189.312 331.71 191.936 333.637 193.566C335.646 195.258 338.136 196.087 340.517 197.107C343.152 198.244 345.732 199.491 348.354 200.669C349.358 201.121 350.363 201.58 351.367 202.032L351.347 202.039Z" fill="#3D4C18"/>
<path d="M79.7713 199.244C79.3516 202.539 77.1498 205.361 74.0537 206.594C73.7578 206.711 73.8128 207.115 74.1225 207.163C77.425 207.622 80.2391 209.841 81.4363 212.937C81.5464 213.225 81.9455 213.177 81.9867 212.869C82.4064 209.574 84.6082 206.752 87.7043 205.519C88.0002 205.402 87.9452 204.998 87.6355 204.95C84.333 204.491 81.5189 202.272 80.3217 199.176C80.2116 198.888 79.8125 198.936 79.7713 199.244Z" fill="#BC864D"/>
<path d="M100.034 267.285C100.034 282.013 88.5298 293.993 74.3838 293.993H47.97V292.342C50.2543 292.342 52.112 290.5 52.112 288.219V246.352C52.112 244.071 50.2611 242.221 47.97 242.221V240.564H58.7446H74.3769C88.5161 240.564 100.027 252.551 100.027 267.278L100.034 267.285ZM93.4218 267.278C93.4218 253.462 82.654 242.221 69.4299 242.221H60.8294C59.6804 242.221 58.7446 243.153 58.7446 244.297V290.267C58.7446 291.411 59.6804 292.342 60.8294 292.342H69.4299C82.6609 292.342 93.4218 281.095 93.4218 267.278Z" fill="#3D4C18"/>
<path d="M149.614 289.335C150.288 291.144 152.022 292.342 153.962 292.342V293.993H141.089V292.342H142.107C143.077 292.342 143.745 291.377 143.408 290.479L135.619 269.655L132.695 277.635C131.168 281.698 127.287 284.211 123.173 284.211C121.996 284.211 120.799 284.006 119.629 283.568C116.23 282.3 113.932 279.41 113.251 276.108L107.767 290.774C107.478 291.541 108.049 292.349 108.868 292.349H110.231V294.007H102.098V292.349H102.16C104.1 292.349 105.834 291.15 106.508 289.342L122.884 245.55C123.489 243.941 122.292 242.221 120.565 242.221V240.57H124.714V240.687L124.748 240.598L124.734 240.577H129.461C130.603 240.577 131.629 241.283 132.028 242.351L149.614 289.349V289.335ZM132.103 274.437C133.796 269.806 133.782 264.723 132.055 260.106L126.379 244.941C126.124 244.262 125.168 244.262 124.913 244.941L120.661 256.318L115.239 271.121C113.595 275.498 115.831 280.375 120.214 282.013C124.604 283.65 129.502 281.424 131.14 277.06L132.096 274.443L132.103 274.437Z" fill="#3D4C18"/>
<path d="M219.691 240.55V242.201H219.629C217.695 242.201 215.955 243.399 215.28 245.208L200.487 289.006C199.889 290.616 201.079 292.335 202.813 292.335V293.993H198.664V293.877L198.63 293.966V293.986H188.412V292.329C189.857 292.329 190.855 290.897 190.346 289.554L175.333 245.208C174.659 243.399 172.925 242.201 170.984 242.201V240.543H183.858V242.201H182.839C181.869 242.201 181.202 243.16 181.539 244.071L197.027 289.691C197.267 290.342 198.189 290.342 198.43 289.691L214.007 243.783C214.296 243.016 213.725 242.207 212.907 242.207H211.544V240.55H219.677H219.691Z" fill="#3D4C18"/>
<path d="M293.703 240.55V242.201H293.641C291.708 242.201 289.967 243.399 289.292 245.208L274.5 289.006C273.901 290.616 275.091 292.335 276.825 292.335V293.993H272.676V293.877L272.642 293.966V293.986H262.425V292.329C263.869 292.329 264.867 290.897 264.358 289.554L249.345 245.208C248.671 243.399 246.937 242.201 244.997 242.201V240.543H257.87V242.201H256.851C255.881 242.201 255.214 243.16 255.551 244.071L271.039 289.691C271.28 290.342 272.202 290.342 272.442 289.691L288.02 243.783C288.309 243.016 287.738 242.207 286.919 242.207H285.556V240.55H293.689H293.703Z" fill="#3D4C18"/>
<path d="M235.653 245.571V288.993C235.653 290.842 237.16 292.342 239.018 292.342V293.993H225.663V292.342C227.521 292.342 229.027 290.842 229.027 288.993V245.571C229.027 243.721 227.521 242.221 225.663 242.221V240.57H239.018V242.221C237.16 242.221 235.653 243.721 235.653 245.571Z" fill="#3D4C18"/>
<path d="M309.665 245.571V288.993C309.665 290.842 311.172 292.342 313.03 292.342V293.993H299.675V292.342C301.533 292.342 303.04 290.842 303.04 288.993V245.571C303.04 243.721 301.533 242.221 299.675 242.221V240.57H313.03V242.221C311.172 242.221 309.665 243.721 309.665 245.571Z" fill="#3D4C18"/>
<path d="M167.716 18.8301C173.736 20.4193 178.456 25.1594 179.984 31.1806C180.121 31.7354 180.878 31.7354 181.023 31.1806C182.543 25.1663 187.27 20.4193 193.291 18.8301C193.862 18.6794 193.862 17.9122 193.291 17.7683C187.27 16.1791 182.55 11.439 181.023 5.41784C180.885 4.863 180.128 4.863 179.984 5.41784C178.463 11.439 173.736 16.1791 167.716 17.7683C167.145 17.919 167.145 18.6862 167.716 18.8301Z" fill="#BC864D"/>
<path d="M158.221 108.647C157.836 108.626 157.464 108.606 157.1 108.572C155.944 108.736 154.795 108.914 153.646 109.14C153.639 109.14 153.625 109.14 153.618 109.14C153.089 109.243 152.559 109.366 152.022 109.483C151.63 109.565 151.238 109.647 150.846 109.736C150.185 109.284 149.504 108.873 148.795 108.496C148.685 108.435 148.568 108.387 148.451 108.332C148.203 108.208 147.963 108.085 147.708 107.976C147.632 107.941 147.55 107.914 147.474 107.88C147.185 107.756 146.889 107.633 146.593 107.523C146.6 107.523 146.607 107.523 146.614 107.53C140.8 105.236 136.754 100.543 132.544 96.0841C131.154 94.6113 129.743 93.1591 128.25 91.8371C129.145 92.1864 130.019 92.5495 130.886 92.9125C134.236 94.3168 137.429 95.7964 140.401 97.2554C140.704 97.4061 141.013 97.5499 141.316 97.7006C141.151 97.1115 141.013 96.5088 140.903 95.8991C139.844 95.3032 138.777 94.7004 137.704 94.1181C135.495 92.9194 133.252 91.7549 130.975 90.6589C128.443 89.4464 125.863 88.3162 123.221 87.3298C123.145 87.3024 123.076 87.275 123.007 87.2476C122.959 87.2339 122.911 87.2202 122.87 87.1996C121.748 86.8024 120.592 86.4873 119.45 86.2064C119.106 86.1242 118.769 86.042 118.432 85.9598C118.425 85.9598 118.411 85.9598 118.404 85.953C118.404 85.953 118.398 85.953 118.391 85.953C118.232 85.9119 118.067 85.8708 117.909 85.8365C117.503 85.7406 117.097 85.6447 116.691 85.542C116.127 85.3981 115.556 85.2406 114.999 85.0693C114.359 84.8707 113.733 84.6515 113.12 84.3912C112.893 84.2953 112.659 84.1994 112.439 84.0898C112.205 83.9802 111.971 83.8637 111.737 83.7404C111.27 83.5144 110.809 83.2609 110.348 82.9938C109.825 82.6924 109.316 82.3499 108.813 82.0005C107.988 81.4183 107.189 80.7744 106.419 80.0757C106.212 79.8907 106.006 79.7058 105.813 79.514C104.885 78.6029 104.004 77.6097 103.192 76.5274C102.655 75.8013 102.167 75.0547 101.72 74.3012C101.568 74.0477 101.424 73.7874 101.279 73.534C101.148 73.3011 101.025 73.0682 100.901 72.8353C100.866 72.7736 100.846 72.712 100.811 72.6435C100.798 72.6229 100.791 72.5955 100.777 72.575C100.605 72.2256 100.433 71.8831 100.282 71.5338C102.738 72.8695 105.407 73.6641 108.105 74.3765C108.263 74.4176 108.421 74.4587 108.579 74.4998C109.185 75.6027 109.955 76.5274 110.829 77.3426C113.994 80.2812 118.618 81.6238 122.368 83.5281C126.317 85.8708 130.72 87.2202 135.144 88.508C136.982 89.0423 138.825 89.5697 140.642 90.152C140.669 89.7684 140.711 89.3779 140.759 88.9875C139.885 88.6861 139.004 88.4052 138.103 88.1723C137.394 87.9805 136.693 87.775 135.998 87.549C128.945 85.3159 122.485 81.5279 115.996 78.1166C114.847 77.4316 113.671 76.6439 112.701 75.7808C112.597 75.6849 112.48 75.5958 112.377 75.4999C112.508 75.5342 112.639 75.5821 112.769 75.6164C113.643 75.8698 114.51 76.137 115.363 76.4521C121.315 78.4796 127.734 78.5413 133.72 80.4182C134.45 80.6442 135.172 80.8977 135.888 81.1854C136.562 81.4183 137.222 81.6649 137.89 81.9115C138.736 82.2334 139.582 82.5622 140.422 82.9116C140.931 83.1239 141.44 83.3363 141.942 83.5555C141.977 83.4459 142.011 83.3294 142.052 83.2198C140.105 82.2745 138.131 81.384 136.115 80.5757C131.821 78.8221 127.246 77.6371 122.691 76.8562C122.636 76.8494 122.581 76.8357 122.519 76.8288C120.888 76.5548 119.313 76.1096 117.751 75.5958C117.393 75.4794 117.035 75.3561 116.684 75.2328C114.435 74.445 112.219 73.5545 109.949 72.8627C109.708 72.7873 109.467 72.712 109.226 72.6435C107.128 71.8489 104.3 71.1639 102.057 69.9651C101.85 69.8555 101.651 69.7391 101.451 69.6158C100.364 68.9513 99.4559 68.143 98.9124 67.1019C98.878 66.9101 98.8436 66.7183 98.816 66.5333C98.816 66.4991 98.8023 66.4648 98.7954 66.4237C98.7954 66.4032 98.7885 66.3758 98.7816 66.3484C98.6922 65.5195 98.4514 64.5879 98.1349 63.7865C98.128 63.7591 98.1142 63.7385 98.1074 63.718C98.0661 63.6084 98.0179 63.5056 97.9766 63.4029C97.9354 63.3138 97.8941 63.2316 97.8528 63.1494C97.8322 63.1152 97.8184 63.0741 97.7977 63.0467C97.7909 63.033 97.784 63.0124 97.7771 62.9987C97.7152 62.8617 97.667 62.6973 97.6877 62.5809C97.6877 62.5603 97.7014 62.5466 97.7083 62.5329C97.7152 62.5124 97.7221 62.4918 97.7358 62.4713C97.7358 62.4713 97.7358 62.4713 97.7358 62.4644C98.2175 61.9507 100.729 62.1904 105.352 63.6152C105.524 63.67 105.717 63.7317 105.896 63.7865C106.137 63.8618 106.378 63.9372 106.632 64.0194C106.976 64.1358 107.334 64.2523 107.705 64.3756C107.822 64.4167 107.939 64.4578 108.063 64.4989C108.366 64.6016 108.683 64.7112 108.999 64.8277C109.116 64.8688 109.226 64.9099 109.35 64.951C109.783 65.1085 110.224 65.2661 110.685 65.4373C110.685 65.4373 110.698 65.4373 110.705 65.4442C111.593 65.7798 112.474 66.1292 113.347 66.4785C113.574 66.5676 113.802 66.6635 114.022 66.7525C114.896 67.1156 115.769 67.4786 116.636 67.8553C116.643 67.8553 116.657 67.8622 116.664 67.869C117.531 68.2526 118.398 68.6431 119.258 69.0472C119.478 69.15 119.698 69.2527 119.911 69.3555C120.771 69.7596 121.631 70.1775 122.485 70.6022C122.485 70.6022 122.505 70.6159 122.519 70.6227C123.785 71.2598 125.044 71.9174 126.296 72.5955C126.53 72.7257 126.764 72.8558 126.998 72.9791C127.088 73.0271 127.177 73.075 127.26 73.123C128.023 73.5477 128.787 73.9861 129.544 74.4313C131.174 75.3835 132.791 76.3699 134.388 77.3974C134.966 77.7741 135.544 78.1577 136.115 78.5413C136.362 78.7057 136.617 78.8701 136.865 79.0413C137.16 79.2468 137.456 79.4592 137.759 79.6647C138.537 80.199 139.307 80.747 140.071 81.3018C140.621 81.6991 141.179 82.1033 141.722 82.5143C141.86 82.617 141.99 82.7198 142.121 82.8225C142.135 82.8362 142.149 82.8431 142.162 82.8568C142.348 82.3019 142.548 81.7471 142.768 81.1854C133.17 73.3764 122.808 67.1293 111.834 62.5466C106.357 60.2108 100.688 57.7927 94.791 56.1967C94.4676 56.1214 94.1443 56.0392 93.8209 55.957C92.376 55.5871 90.883 55.2103 89.2454 55.3679C88.406 55.4912 87.7661 56.0529 87.5804 56.8406C87.3946 57.6284 87.718 58.4503 88.4335 58.9435C91.8669 60.9985 94.9837 63.1563 95.4171 66.9101C96.6006 74.0546 101.265 80.7538 107.719 84.6789C106.894 84.8775 106.144 85.2269 105.469 85.7543C101.431 88.9738 100.096 94.9607 102.428 99.4063C107.644 108.25 121.06 119.223 131.567 118.216C125.292 122.498 119.223 127.964 113.058 134.889C112.694 135.321 112.322 135.752 111.951 136.191C109.797 138.711 107.568 141.321 106.04 144.424C105.717 145.164 105.862 146.007 106.398 146.575C106.536 146.719 106.687 146.835 106.859 146.931C107.327 147.185 107.905 147.219 108.483 147C108.786 146.829 109.082 146.65 109.377 146.472C111.036 145.472 116.554 146.644 117.703 147.925C118.7 149.034 119.829 150.288 121.308 151.267C121.48 151.37 121.645 151.459 121.817 151.555C129.853 155.884 148.768 149.349 157.203 131.039C157.059 130.039 157.01 128.998 157.038 127.93C156.997 128.039 156.955 128.149 156.907 128.265C155.758 131.286 154.43 134.218 152.744 136.903C152.428 137.403 152.098 137.896 151.761 138.383C151.671 138.513 151.568 138.643 151.472 138.773C151.41 138.862 151.341 138.951 151.272 139.04C151.045 139.348 150.797 139.657 150.557 139.958C150.453 140.088 150.357 140.218 150.247 140.349C149.951 140.705 149.648 141.047 149.339 141.39C149.05 141.705 148.747 142.02 148.437 142.321C148.307 142.445 148.19 142.582 148.059 142.705C147.729 143.006 147.371 143.301 147.006 143.602C146.724 143.828 146.435 144.054 146.132 144.274C146.036 144.349 145.933 144.424 145.83 144.493C145.692 144.595 145.548 144.691 145.41 144.787C145.073 145.027 144.722 145.26 144.364 145.493C144.309 145.527 144.254 145.568 144.199 145.602C144.137 145.644 144.075 145.685 144.013 145.726C143.628 145.972 143.229 146.205 142.823 146.438C142.575 146.582 142.321 146.726 142.066 146.863C141.935 146.931 141.812 147.007 141.681 147.075C141.172 147.342 140.642 147.596 140.112 147.836C139.837 147.959 139.562 148.089 139.28 148.205C138.991 148.329 138.702 148.438 138.413 148.548C138.151 148.644 137.897 148.74 137.635 148.829C137.491 148.877 137.353 148.932 137.209 148.979C136.858 149.096 136.507 149.206 136.156 149.308C135.819 149.404 135.488 149.493 135.151 149.582C135.131 149.582 135.103 149.596 135.083 149.603C134.725 149.692 134.36 149.774 134.002 149.843C133.961 149.849 133.92 149.856 133.878 149.863C133.83 149.87 133.789 149.877 133.741 149.884C133.693 149.891 133.645 149.897 133.596 149.904C134.154 149.541 134.697 149.151 135.206 148.733C135.323 148.637 135.44 148.534 135.557 148.431C137.057 147.123 138.309 145.554 139.128 143.705C139.293 143.28 139.445 142.862 139.582 142.438C140.532 139.602 141.02 136.766 142.08 134.088C142.548 132.903 143.133 131.745 143.924 130.635C148.375 123.594 154.926 118.066 160.086 111.449C160.409 111.038 160.726 110.62 161.035 110.202C161.035 110.4 161.022 110.64 161.008 110.907C161.269 110.216 161.551 109.524 161.833 108.832C161.434 108.818 161.049 108.804 160.698 108.777C159.838 108.756 158.992 108.736 158.187 108.702L158.221 108.647ZM119.519 89.1861C119.65 89.2272 119.774 89.2683 119.898 89.3094C121.707 89.8917 123.379 90.7274 124.968 91.7343C125.209 91.8919 125.45 92.0494 125.691 92.207C125.698 92.207 125.711 92.2207 125.718 92.2275C126.393 92.6865 127.053 93.1797 127.7 93.6866C132.771 97.6664 137.195 102.934 142.837 105.941C143.8 106.455 144.805 106.907 145.85 107.27C144.426 107.023 142.995 106.784 141.564 106.523C137.367 105.749 133.204 104.749 129.496 102.653C128.773 102.242 128.065 101.79 127.377 101.29C126.028 100.304 125.202 98.961 124.521 97.5157C124.439 97.3376 124.349 97.1526 124.273 96.9677C123.895 96.1251 123.551 95.2552 123.159 94.4127C122.952 93.9743 122.739 93.5359 122.505 93.118C122.443 92.9879 122.361 92.8714 122.299 92.7481C121.769 91.7754 121.129 90.8781 120.4 90.0698C120.125 89.7684 119.836 89.4738 119.533 89.193L119.519 89.1861ZM104.843 97.9335C104.809 97.8719 104.774 97.8102 104.74 97.7417C104.699 97.6664 104.664 97.5842 104.63 97.502C104.63 97.4951 104.63 97.4883 104.623 97.4814C104.623 97.4814 104.623 97.4677 104.616 97.4609C104.527 97.2622 104.437 97.0568 104.355 96.8444C104.245 96.5636 104.155 96.269 104.073 95.9676C104.073 95.9539 104.066 95.9334 104.059 95.9197C103.983 95.6183 103.921 95.3169 103.873 95.0018C103.797 94.4812 103.77 93.9469 103.804 93.3852C103.859 92.4467 104.066 91.4535 104.513 90.4191C104.582 90.1862 104.664 89.9739 104.761 89.7684C104.843 89.5903 104.926 89.419 105.015 89.2615C105.497 88.4326 106.137 87.8572 106.859 87.4736C106.887 87.4599 106.914 87.4325 106.949 87.4188C107.183 87.3024 107.423 87.2065 107.671 87.1312C107.781 87.0969 107.898 87.0558 108.008 87.0215C109.46 87.0558 110.912 87.275 112.315 87.6791C115.824 88.6792 118.982 90.8164 120.778 94.0359C121.721 95.5909 122.443 97.4266 123.4 99.0706C124.136 100.345 125.017 101.496 126.234 102.324C126.331 102.386 126.42 102.455 126.516 102.516C127.253 102.996 128.01 103.427 128.78 103.811C129.035 103.941 129.296 104.064 129.558 104.181C130.232 104.489 130.913 104.756 131.601 105.01C131.849 105.099 132.096 105.181 132.344 105.263C132.626 105.352 132.908 105.441 133.19 105.53C133.768 105.701 134.353 105.866 134.945 106.01C135.124 106.051 135.303 106.099 135.482 106.14C136.782 106.441 138.096 106.681 139.417 106.88C134.291 107.784 128.925 108.818 123.84 107.517C122.98 107.297 122.127 107.017 121.287 106.647C118.294 105.373 115.178 103.962 112.178 102.393C110.994 101.776 109.825 101.139 108.696 100.461C107.361 99.6666 106.075 98.8309 104.85 97.9472L104.843 97.9335ZM129.083 114.853H129.076H129.055C121.363 113.572 114.785 108.407 109.24 103.092C109.887 103.372 110.526 103.633 111.159 103.893C111.366 103.982 111.579 104.071 111.786 104.153C113.891 105.078 116.079 106.071 118.322 106.907C118.57 107.003 118.817 107.092 119.072 107.181C122.822 108.51 126.723 109.346 130.686 108.654C131.945 108.387 133.218 108.167 134.491 107.941C136.19 107.647 137.89 107.339 139.555 106.893C140.064 106.969 140.573 107.037 141.082 107.106C142.706 107.318 144.323 107.489 145.933 107.674C146.683 107.873 147.419 108.14 148.142 108.441C149.043 108.818 149.917 109.263 150.756 109.77C150.756 109.77 150.729 109.77 150.715 109.777C150.694 109.777 150.667 109.791 150.646 109.791C148.685 110.243 146.731 110.743 144.798 111.264C144.502 111.346 144.199 111.421 143.903 111.496C143.724 111.544 143.539 111.592 143.36 111.647C142.74 111.818 142.128 111.983 141.509 112.154C141.062 112.277 140.621 112.394 140.181 112.517C139.163 112.798 138.144 113.079 137.133 113.346C137.064 113.367 136.982 113.387 136.906 113.414C136.844 113.435 136.782 113.449 136.72 113.469C136.693 113.476 136.665 113.483 136.644 113.49C136.603 113.504 136.555 113.517 136.507 113.531C136.307 113.593 136.101 113.654 135.894 113.716C135.722 113.771 135.55 113.825 135.372 113.88C133.287 114.545 130.934 115.298 129.09 114.867L129.083 114.853ZM144.206 128.724C143.869 129.183 143.539 129.642 143.215 130.115C142.685 130.813 142.224 131.56 141.818 132.334C140.731 134.41 140.009 136.704 139.252 138.931C139.156 139.211 139.059 139.485 138.97 139.759C138.585 140.862 138.179 141.931 137.711 142.945C137.202 143.897 136.576 144.753 135.846 145.513C135.839 145.52 135.826 145.534 135.819 145.541C134.236 147.178 132.213 148.363 130.019 149.137C129.138 149.452 128.23 149.699 127.315 149.884C124.342 149.281 121.92 147.753 120.097 145.308C120.042 145.239 119.98 145.185 119.925 145.116C119.794 144.952 119.65 144.808 119.512 144.664C119.416 144.568 119.32 144.472 119.223 144.383C119.203 144.363 119.182 144.349 119.161 144.328C119.058 144.232 118.955 144.137 118.852 144.054C118.714 143.945 118.563 143.849 118.418 143.753C118.143 143.568 117.868 143.404 117.579 143.267C117.544 143.253 117.517 143.232 117.483 143.212C119.719 140.205 122.705 138.225 126 136.65C126.503 136.41 127.012 136.184 127.521 135.958C133.452 133.375 140.098 131.745 145.032 127.642C144.749 127.998 144.474 128.368 144.206 128.731V128.724ZM145.506 127.032C136.39 134.547 122.684 132.909 114.944 142.493C114.785 142.472 114.641 142.465 114.49 142.451C114.09 142.417 113.698 142.397 113.334 142.404C113.224 142.404 113.12 142.404 113.017 142.41C112.797 142.417 112.591 142.431 112.391 142.445C112.302 142.445 112.212 142.458 112.13 142.465C112.123 142.465 112.116 142.465 112.109 142.465C112.068 142.465 112.033 142.472 111.999 142.479C111.799 142.499 111.614 142.513 111.448 142.534C111.276 142.554 111.098 142.568 110.953 142.582C111.049 142.287 111.311 141.849 111.703 141.294C112.467 140.212 113.76 138.684 115.412 136.896C115.694 136.588 115.996 136.266 116.299 135.937C116.402 135.828 116.506 135.718 116.616 135.602C116.905 135.293 117.2 134.985 117.503 134.67C117.661 134.506 117.82 134.341 117.978 134.184C118.102 134.053 118.226 133.923 118.356 133.793C118.494 133.656 118.632 133.512 118.769 133.375C118.941 133.204 119.113 133.026 119.285 132.848C119.402 132.731 119.512 132.615 119.629 132.498C119.849 132.279 120.076 132.053 120.303 131.827C120.386 131.745 120.462 131.67 120.544 131.587C120.861 131.272 121.184 130.95 121.514 130.635C124.046 130.327 126.627 129.889 129.09 129.135C130.466 128.717 131.78 128.197 133.067 127.621C133.555 127.402 134.044 127.176 134.532 126.936C138.378 125.059 142.018 122.785 146.112 121.265C146.112 121.265 151.32 118.97 153.598 117.97C153.838 117.86 154.052 117.771 154.217 117.696C151.238 120.717 148.203 123.703 145.527 127.032H145.506ZM161.077 109.928C161.077 109.976 161.077 110.031 161.077 110.085C160.973 110.222 160.863 110.353 160.753 110.49C160.567 110.722 160.382 110.962 160.189 111.188C159.756 111.716 159.308 112.236 158.854 112.75C157.368 114.435 155.813 116.059 154.231 117.661C149.49 119.538 143.16 121.84 138.378 123.943C138 124.107 137.621 124.279 137.264 124.443C136.748 124.724 136.232 124.984 135.702 125.224C135.124 125.491 134.546 125.731 133.954 125.957C130.796 127.176 127.493 127.834 124.108 128.114C125.78 126.532 127.514 124.943 129.234 123.422C129.344 123.32 129.454 123.224 129.564 123.121C130.005 122.703 130.473 122.306 130.941 121.908C131.051 121.813 131.161 121.71 131.278 121.621C131.828 121.162 132.399 120.723 132.984 120.292C133.184 120.148 133.376 119.997 133.576 119.86C134.711 119.059 135.908 118.298 137.188 117.579C137.518 117.394 137.855 117.202 138.199 117.024C138.399 116.922 138.598 116.819 138.798 116.716C139.307 116.456 139.823 116.202 140.353 115.956C141.832 115.271 143.408 114.62 145.087 114.004C146.545 113.51 148.011 113.031 149.476 112.565C149.896 112.435 150.309 112.298 150.729 112.168C151.162 112.044 151.602 111.921 152.036 111.798C152.056 111.798 152.077 111.784 152.098 111.777C153.144 111.483 154.203 111.202 155.263 110.935C155.827 110.791 156.384 110.654 156.948 110.51C157.478 110.38 158.008 110.243 158.538 110.113C159.006 109.996 159.474 109.88 159.935 109.763C160.168 109.709 160.402 109.647 160.636 109.592C160.664 109.592 160.684 109.592 160.712 109.592C160.74 109.592 160.774 109.585 160.801 109.592C160.953 109.626 161.07 109.763 161.07 109.935L161.077 109.928Z" fill="#BC864D"/>
<path d="M273.399 56.82C273.213 56.0322 272.573 55.4705 271.734 55.3472C270.096 55.1897 268.603 55.5664 267.159 55.9363C266.835 56.0185 266.512 56.1007 266.188 56.1761C260.292 57.7721 254.622 60.1902 249.146 62.526C238.791 66.8483 228.986 72.6639 219.849 79.8633C220.076 80.4387 220.282 81.0209 220.482 81.6031C221.686 80.7264 222.89 79.8633 224.122 79.0276C224.94 78.4727 225.766 77.9247 226.599 77.3836C228.429 76.1985 230.287 75.0751 232.172 73.9928C232.688 73.6983 233.211 73.4037 233.727 73.1092C233.782 73.0818 233.837 73.0475 233.885 73.0201C234.153 72.8694 234.422 72.7256 234.69 72.5749C235.949 71.8899 237.222 71.2254 238.502 70.5815C239.348 70.1569 240.201 69.7459 241.061 69.3417C241.281 69.239 241.508 69.1294 241.729 69.0266C242.582 68.6293 243.442 68.2389 244.302 67.8621C244.316 67.8621 244.329 67.8484 244.343 67.8416C245.21 67.4648 246.084 67.0949 246.958 66.7387C247.178 66.6497 247.405 66.5538 247.625 66.4647C248.499 66.1085 249.38 65.766 250.267 65.4304C250.274 65.4304 250.281 65.4304 250.295 65.4235C250.749 65.2523 251.189 65.0947 251.623 64.9372C251.746 64.8892 251.87 64.8481 251.994 64.807C252.304 64.6974 252.613 64.5878 252.909 64.4851C253.033 64.444 253.157 64.396 253.281 64.3549C253.645 64.2316 254.01 64.1083 254.354 63.9919C254.581 63.9165 254.794 63.8549 255.008 63.7864C255.214 63.7179 255.427 63.6494 255.627 63.5877C259.962 62.252 262.445 61.9574 263.133 62.3547C263.182 62.3821 263.216 62.4095 263.25 62.4438C263.264 62.4575 263.264 62.478 263.271 62.4917C263.285 62.5123 263.299 62.5328 263.299 62.5602C263.319 62.6972 263.25 62.8822 263.189 63.0329C263.092 63.2178 262.996 63.4165 262.906 63.6288C262.9 63.6494 262.893 63.6631 262.886 63.6836C262.611 64.3549 262.397 65.129 262.273 65.8619C262.246 66.0469 262.205 66.2318 262.191 66.4031C262.163 66.6291 262.115 66.8552 262.074 67.0812C260.794 69.5267 257.533 70.7048 254.554 71.6775C253.645 71.9721 252.765 72.2529 251.98 72.5406C251.912 72.568 251.836 72.5954 251.76 72.616C249.132 73.3626 246.593 74.4107 244.006 75.3012C243.634 75.4313 243.263 75.5546 242.891 75.6711C241.997 75.9588 241.096 76.2259 240.174 76.4451C240.146 76.452 240.112 76.4588 240.084 76.4657C239.623 76.5753 239.155 76.6712 238.681 76.7534C238.605 76.7671 238.536 76.7808 238.46 76.7945C237.882 76.8904 237.305 76.9931 236.733 77.1096C235.268 77.3904 233.796 77.7261 232.344 78.1028C229.798 78.7604 227.287 79.5619 224.872 80.5483C223.468 81.1099 222.092 81.7127 220.723 82.3429C220.764 82.4868 220.812 82.6238 220.854 82.7676C221.858 82.3566 222.876 81.973 223.902 81.5963C224.301 81.4524 224.7 81.3017 225.106 81.1579C226.633 80.5414 228.202 80.0825 229.784 79.7057C230.115 79.6304 230.452 79.555 230.782 79.4797C231.147 79.4043 231.518 79.3221 231.883 79.2536C236.045 78.4453 240.298 78.0206 244.371 76.8287C244.79 76.7054 245.21 76.5753 245.63 76.4314C245.788 76.3766 245.946 76.3218 246.105 76.267C246.751 76.041 247.405 75.8355 248.065 75.6437C248.251 75.5889 248.437 75.5341 248.623 75.4793C248.602 75.4998 248.575 75.5204 248.554 75.5409C247.543 76.4862 246.249 77.3493 245.011 78.0891C238.213 81.6716 231.429 85.6583 223.97 87.8366C223.613 87.9394 223.262 88.0421 222.904 88.138C222.601 88.2202 222.298 88.3161 222.003 88.3983C222.044 88.7888 222.071 89.1861 222.092 89.5765C225.229 88.6244 228.422 87.7818 231.504 86.7064C233.981 85.8433 236.389 84.8295 238.646 83.4869C240.738 82.4251 243.105 81.5346 245.341 80.4524C245.699 80.2811 246.056 80.0962 246.407 79.9112C247.508 79.329 248.547 78.6714 249.497 77.9042C250.666 76.9589 251.678 75.8423 252.435 74.4586C252.558 74.4244 252.675 74.397 252.799 74.3627C255.538 73.6435 258.248 72.842 260.739 71.4857C260.622 71.7597 260.485 72.0337 260.354 72.3077C260.333 72.3557 260.313 72.3968 260.292 72.4447C260.237 72.5612 260.189 72.6708 260.134 72.7872C259.494 74.0476 258.73 75.2875 257.849 76.4862C257.443 77.0205 257.024 77.5411 256.59 78.0343C256.15 78.5344 255.703 79.007 255.235 79.466C255.152 79.5482 255.063 79.6235 254.98 79.6989C254.32 80.3291 253.632 80.9181 252.916 81.4593C252.201 82.0004 251.464 82.5005 250.701 82.9457C250.247 83.2129 249.786 83.4663 249.311 83.6924C249.049 83.8294 248.788 83.9664 248.52 84.0897C248.485 84.1034 248.458 84.1171 248.423 84.1308C248.079 84.2883 247.728 84.4322 247.371 84.5623C246.937 84.7267 246.49 84.8843 246.049 85.0213C245.485 85.1925 244.921 85.3501 244.357 85.4939C244.123 85.5556 243.896 85.6104 243.662 85.6652C243.325 85.7474 242.995 85.8296 242.664 85.9118C242.651 85.9118 242.637 85.9186 242.623 85.9255C241.247 86.2543 239.837 86.6036 238.467 87.0694C238.323 87.1174 238.185 87.1585 238.041 87.2133C237.724 87.3297 237.408 87.4599 237.091 87.5832C234.236 88.686 231.449 89.9327 228.718 91.2821C227.424 91.9192 226.145 92.5836 224.879 93.2618C224.363 93.5358 223.853 93.8098 223.337 94.0906C222.808 94.3783 222.292 94.6729 221.762 94.9674C221.576 95.7415 221.294 96.4402 220.97 97.0704C223.11 96.0292 225.367 94.9743 227.706 93.9399C229.365 93.2138 231.05 92.4946 232.791 91.8096C226.771 97.1526 222.161 104.455 214.427 107.51C214.434 107.51 214.441 107.51 214.448 107.503C213.725 107.763 213.031 108.078 212.356 108.428C211.73 108.75 211.125 109.113 210.533 109.496C210.423 109.572 210.306 109.64 210.196 109.715C209.769 109.619 209.336 109.53 208.902 109.441C208.407 109.339 207.918 109.222 207.423 109.126C207.409 109.126 207.395 109.126 207.375 109.119C206.04 108.859 204.691 108.64 203.35 108.455C202.848 108.387 202.345 108.325 201.843 108.263C202.118 108.88 202.387 109.496 202.634 110.12C202.634 110.12 202.641 110.12 202.648 110.12C203.618 110.359 204.581 110.599 205.552 110.852C205.613 110.866 205.675 110.887 205.737 110.9C206.769 111.168 207.801 111.442 208.82 111.722C209.019 111.777 209.226 111.839 209.425 111.894C209.721 111.976 210.017 112.058 210.306 112.14C210.822 112.305 211.345 112.469 211.861 112.64C213.223 113.079 214.585 113.524 215.948 113.983C217.627 114.599 219.202 115.243 220.682 115.935C221.425 116.278 222.14 116.634 222.835 116.997C224.5 117.874 226.028 118.819 227.459 119.826C227.672 119.977 227.872 120.127 228.085 120.285C228.56 120.634 229.021 120.99 229.475 121.353C230.287 122.004 231.057 122.682 231.8 123.402C233.52 124.922 235.247 126.505 236.926 128.094C232.344 127.717 227.899 126.655 223.778 124.422C218.899 122.196 211.93 119.668 206.811 117.641C206.295 117.12 205.785 116.593 205.276 116.065C204.925 115.702 204.581 115.332 204.231 114.962C204.279 115.134 204.32 115.305 204.368 115.483C204.898 116.072 205.428 116.661 205.964 117.244C208.386 119.881 210.863 122.47 213.134 125.203C214.558 126.916 215.9 128.69 217.083 130.567C217.709 131.45 218.205 132.361 218.617 133.293C220.076 136.581 220.489 140.129 221.879 143.636C221.975 143.849 222.085 144.054 222.188 144.267C222.532 144.931 222.925 145.561 223.372 146.15C224.259 147.329 225.333 148.363 226.53 149.24C226.812 149.445 227.108 149.644 227.404 149.836C227.369 149.836 227.335 149.822 227.307 149.822C227.252 149.815 227.197 149.801 227.142 149.795C227.094 149.788 227.046 149.781 226.998 149.767C226.275 149.623 225.56 149.438 224.837 149.233C224.486 149.13 224.135 149.02 223.785 148.904C223.489 148.801 223.186 148.699 222.89 148.589C222.498 148.445 222.106 148.294 221.727 148.137C221.727 148.137 221.727 148.137 221.72 148.137C221.535 148.062 221.349 147.972 221.163 147.89C220.537 147.609 219.918 147.322 219.319 147.007C219.058 146.87 218.796 146.726 218.542 146.589C218.328 146.472 218.129 146.349 217.922 146.226C217.599 146.041 217.283 145.849 216.973 145.657C216.829 145.568 216.691 145.472 216.546 145.383C216.147 145.123 215.755 144.863 215.384 144.595C214.489 143.958 213.664 143.301 212.934 142.643C212.074 141.835 211.297 140.979 210.567 140.081C210.333 139.794 210.113 139.499 209.886 139.204C209.542 138.752 209.219 138.293 208.902 137.821C208.682 137.499 208.462 137.177 208.256 136.848C207.079 134.971 206.074 132.978 205.187 130.923C205.084 131.622 204.953 132.327 204.808 133.026C213.664 149.781 231.456 155.672 239.19 151.507C239.362 151.418 239.527 151.322 239.699 151.219C241.178 150.24 242.307 148.979 243.304 147.877C244.46 146.596 249.971 145.431 251.629 146.424C251.925 146.602 252.221 146.781 252.524 146.952C253.102 147.171 253.68 147.137 254.148 146.883C254.32 146.794 254.471 146.671 254.609 146.527C255.145 145.959 255.29 145.116 254.966 144.376C253.432 141.273 251.21 138.67 249.056 136.143C248.685 135.704 248.313 135.273 247.948 134.841C241.784 127.923 235.715 122.449 229.44 118.168C239.947 119.175 253.37 108.202 258.579 99.3583C260.918 94.9126 259.576 88.9258 255.538 85.7063C254.863 85.1788 254.113 84.8226 253.288 84.6308C259.748 80.7058 264.413 74.0065 265.59 66.862C266.023 63.1082 269.14 60.9574 272.573 58.8955C273.289 58.4023 273.612 57.5803 273.427 56.7926L273.399 56.82ZM243.524 143.212C243.524 143.212 243.518 143.212 243.511 143.219C243.297 143.321 243.091 143.431 242.885 143.554C242.637 143.705 242.396 143.862 242.155 144.054C241.797 144.335 241.46 144.671 241.144 145.048C241.068 145.137 240.986 145.212 240.917 145.308C240.69 145.616 240.449 145.904 240.208 146.185C239.885 146.548 239.548 146.87 239.197 147.185C237.655 148.555 235.825 149.459 233.706 149.89C232.777 149.705 231.862 149.452 230.975 149.137C227.768 147.993 224.913 145.979 223.303 142.951C222.945 142.198 222.636 141.403 222.333 140.588C221.039 137.06 220.09 133.142 217.792 130.121C217.214 129.272 216.601 128.45 215.975 127.642C217.723 129.094 219.691 130.238 221.762 131.224C221.865 131.272 221.961 131.327 222.064 131.375C222.264 131.471 222.47 131.553 222.67 131.649C222.911 131.759 223.145 131.868 223.386 131.971C225.567 132.909 227.837 133.725 230.066 134.581C230.19 134.629 230.307 134.677 230.431 134.725C232.165 135.396 233.871 136.095 235.502 136.903C235.928 137.115 236.348 137.334 236.761 137.561C239.355 138.985 241.687 140.759 243.518 143.225L243.524 143.212ZM248.533 140.266C249.373 141.321 249.909 142.123 250.054 142.575C249.909 142.561 249.73 142.54 249.558 142.527C249.407 142.513 249.235 142.492 249.049 142.479C249.001 142.479 248.953 142.472 248.898 142.465C248.891 142.465 248.877 142.465 248.87 142.465C248.788 142.458 248.705 142.451 248.616 142.445C248.416 142.431 248.21 142.417 247.99 142.41C247.887 142.41 247.776 142.41 247.673 142.403C247.302 142.403 246.903 142.417 246.49 142.451C246.345 142.465 246.208 142.472 246.056 142.492C239.093 133.875 227.321 134.327 218.383 129.046C217.785 128.697 217.207 128.32 216.636 127.909C216.271 127.649 215.907 127.375 215.556 127.087C215.535 127.066 215.514 127.053 215.494 127.039C212.817 123.71 209.783 120.723 206.804 117.702C207.003 117.792 207.265 117.908 207.574 118.038C207.684 118.086 207.795 118.134 207.912 118.189C208.09 118.271 208.29 118.353 208.489 118.442C211.015 119.552 214.909 121.264 214.909 121.264C217.482 122.223 219.877 123.477 222.257 124.744C222.333 124.785 222.408 124.826 222.491 124.868C223.282 125.292 224.08 125.71 224.879 126.121C226.014 126.703 227.156 127.272 228.326 127.786C229.495 128.299 230.692 128.758 231.938 129.135C234.401 129.882 236.981 130.327 239.513 130.635C243.366 134.41 246.689 137.951 248.54 140.273L248.533 140.266ZM215.163 107.27C222.56 104.708 227.7 97.9129 233.906 93.2275C234.043 93.1248 234.188 93.0152 234.325 92.9124C235.722 91.8918 237.167 90.9807 238.715 90.2478C238.86 90.1793 239.011 90.1177 239.162 90.0492C239.314 89.9807 239.465 89.9122 239.616 89.8505C239.671 89.83 239.72 89.8094 239.775 89.7889C240.029 89.6861 240.284 89.5834 240.545 89.4943C240.855 89.3847 241.171 89.282 241.495 89.1861C240.325 90.2821 239.327 91.563 238.577 93.0152C238.557 93.0494 238.536 93.0768 238.522 93.1111C238.433 93.2686 238.364 93.433 238.282 93.5906C237.511 95.077 236.94 96.6936 236.176 98.1664C235.55 99.3582 234.793 100.447 233.651 101.283C232.13 102.393 230.5 103.263 228.807 103.961C225.801 105.215 222.58 105.941 219.347 106.537C217.957 106.79 216.56 107.023 215.177 107.263L215.163 107.27ZM231.952 114.846H231.931H231.924C230.08 115.278 227.72 114.524 225.642 113.86C225.463 113.805 225.291 113.75 225.119 113.695C225.092 113.688 225.064 113.682 225.037 113.668C224.81 113.599 224.59 113.531 224.369 113.469C224.294 113.449 224.225 113.428 224.149 113.408C224.094 113.394 224.039 113.373 223.984 113.36C223.95 113.353 223.908 113.339 223.874 113.325C222.863 113.058 221.844 112.777 220.826 112.496C220.379 112.373 219.938 112.257 219.498 112.133C218.796 111.942 218.101 111.75 217.4 111.558C217.303 111.531 217.207 111.503 217.111 111.476C216.828 111.4 216.546 111.325 216.264 111.25C214.317 110.729 212.349 110.222 210.368 109.77C210.34 109.77 210.313 109.756 210.285 109.75C210.278 109.75 210.265 109.75 210.258 109.743C210.464 109.62 210.677 109.503 210.891 109.387C212.226 108.64 213.622 108.03 215.081 107.647C216.629 107.475 218.198 107.304 219.766 107.099C220.331 107.023 220.895 106.948 221.452 106.866C223.014 107.284 224.61 107.578 226.206 107.859C227.583 108.099 228.959 108.332 230.321 108.626C235.935 109.613 241.433 107.53 246.552 105.304C247.453 104.914 248.348 104.516 249.221 104.133C249.524 104.009 249.841 103.872 250.143 103.749C250.687 103.523 251.224 103.304 251.767 103.071C246.222 108.387 239.644 113.551 231.952 114.832V114.846ZM254.065 87.4119C254.065 87.4119 254.12 87.4462 254.148 87.4599C254.251 87.5147 254.361 87.5832 254.464 87.6448C255.345 88.1997 256.088 89.0696 256.494 90.4053C256.886 91.3301 257.106 92.2137 257.182 93.0631C257.216 93.4536 257.216 93.8372 257.203 94.2139C257.182 94.6797 257.12 95.1318 257.024 95.5634C257.024 95.5908 257.01 95.6182 257.003 95.6456C256.962 95.8305 256.914 96.0223 256.865 96.2004C256.81 96.3785 256.755 96.5498 256.693 96.7142C256.68 96.7553 256.666 96.7964 256.652 96.8306C256.57 97.0498 256.48 97.2622 256.384 97.4677C256.343 97.5567 256.308 97.6458 256.26 97.728C256.226 97.7965 256.191 97.8513 256.157 97.9198C254.327 99.2418 252.338 100.461 250.281 101.591C248.912 102.345 247.508 103.057 246.098 103.742C245.926 103.824 245.747 103.907 245.575 103.989C243.614 104.92 241.646 105.797 239.72 106.612C235.99 108.236 232.055 108.304 228.126 107.866C227.514 107.797 226.908 107.722 226.296 107.633C225.862 107.571 225.422 107.503 224.989 107.434C224.486 107.352 223.991 107.27 223.496 107.181C222.856 107.071 222.216 106.955 221.583 106.845C222.773 106.667 223.963 106.455 225.14 106.195C225.635 106.085 226.124 105.968 226.612 105.845C226.888 105.777 227.163 105.701 227.431 105.619C227.975 105.462 228.518 105.29 229.055 105.105C230.933 104.455 232.757 103.612 234.477 102.496C234.738 102.338 234.979 102.16 235.213 101.975C235.481 101.756 235.743 101.53 235.977 101.283C236.121 101.132 236.266 100.968 236.403 100.804C238.041 98.8308 238.921 96.1593 240.215 94.0221C241.584 91.5698 243.738 89.7478 246.235 88.5764C248.327 87.59 250.659 87.0626 252.985 87.0078C253.102 87.042 253.212 87.0763 253.329 87.1174C253.57 87.1996 253.817 87.2886 254.051 87.4051L254.065 87.4119Z" fill="#BC864D"/>
<path d="M200.219 87.8777C199.799 87.8982 199.359 87.9256 198.891 87.953H198.877C197.474 91.1109 195.52 93.9262 191.88 94.6523C191.997 94.7277 192.114 94.8098 192.231 94.892C195.761 94.94 199.971 91.6383 200.219 87.8777Z" fill="#BC864D"/>
<path d="M201.354 97.8718C201.788 97.7896 202.221 97.6937 202.648 97.591C206.886 96.5429 210.856 94.3852 212.886 91.0766C212.081 90.5149 211.228 90.0765 210.443 89.734C210.34 89.6861 210.237 89.6381 210.134 89.597C208.269 91.8027 206.095 93.6043 203.632 94.9469C201.079 96.3374 198.203 97.2211 195.004 97.5499C195.217 97.7965 195.424 98.0499 195.63 98.3034C197.453 98.3856 199.414 98.2417 201.354 97.8718Z" fill="#BC864D"/>
<path d="M215.439 94.5976C212.274 96.9608 208.813 98.5157 205.139 99.1391C204.967 99.1665 204.802 99.187 204.63 99.2144C203.604 99.3651 202.565 99.4473 201.506 99.4473C201.107 99.4473 200.701 99.4336 200.302 99.4131C198.898 99.3377 197.467 99.1322 196.015 98.7897C196.311 99.1665 196.6 99.5432 196.889 99.9268C197.687 100.221 198.52 100.489 199.387 100.701C199.841 100.817 200.302 100.913 200.77 101.002C201.451 101.132 202.139 101.235 202.834 101.311C202.958 101.324 203.082 101.338 203.212 101.345C205.476 101.557 207.767 101.461 209.866 100.968C210.051 100.906 210.251 100.845 210.423 100.776C212.274 99.8035 213.609 98.687 214.868 97.6184C214.943 97.5568 215.033 97.4745 215.129 97.3992C215.638 96.4334 215.535 95.2141 215.439 94.5839V94.5976Z" fill="#BC864D"/>
<path d="M166.533 91.6109C165.68 90.4121 165.102 89.186 164.544 87.8914C164.09 87.953 163.636 88.0147 163.203 88.09C163.56 91.8232 167.599 94.7824 171.328 94.94C171.48 94.8441 171.638 94.755 171.789 94.6728C169.691 94.255 167.792 93.1727 166.533 91.6109Z" fill="#BC864D"/>
<path d="M155.524 90.5081C154.987 90.7752 154.492 91.0492 154.017 91.3369C153.66 91.5561 153.322 91.7753 152.999 92.0082C152.91 92.0698 152.82 92.1315 152.738 92.1931C153.687 93.3645 154.905 94.3577 156.274 95.1934C156.976 95.625 157.726 96.0017 158.503 96.3442C161.386 97.6046 164.668 98.2554 167.709 98.317C167.984 97.9745 168.26 97.6457 168.542 97.3306C165.122 96.7826 161.854 95.6661 159.129 93.8371C157.76 92.7891 156.584 91.6931 155.517 90.5081H155.524Z" fill="#BC864D"/>
<path d="M160.657 99.3445C160.217 99.3034 159.783 99.2487 159.357 99.1802C158.772 99.0843 158.187 98.9678 157.616 98.824C156.728 98.5363 155.889 98.2143 155.077 97.8581C154.754 97.7143 154.43 97.5704 154.114 97.4129C152.641 96.6936 151.272 95.8648 149.924 94.8989C149.49 95.4675 149.132 96.0429 148.871 96.6046C148.747 96.8649 148.685 97.0978 148.603 97.3375C150.77 99.8994 154.176 101.132 157.836 101.4C157.974 101.406 158.118 101.42 158.256 101.427C158.964 101.461 159.687 101.468 160.402 101.434C160.925 101.413 161.448 101.372 161.971 101.317C163.388 101.167 164.792 100.893 166.127 100.516C166.457 100.009 166.794 99.5295 167.131 99.0637C164.957 99.4268 162.769 99.5432 160.65 99.3445H160.657Z" fill="#BC864D"/>
<path d="M174.831 91.015C174.493 89.7614 174.301 88.6586 173.929 87.453C173.606 87.453 173.282 87.453 172.966 87.453C172.051 90.008 174.026 92.9056 176.447 94.0769C176.805 94.1112 177.163 94.1386 177.521 94.1591C176.269 93.3919 175.319 92.2754 174.837 91.0218L174.831 91.015Z" fill="#BC864D"/>
<path d="M189.032 88.0558L188.103 88.0078C187.525 90.1656 187.147 92.3027 185.358 93.7001C185.77 93.6453 186.19 93.5974 186.617 93.5563C187.353 93.0562 188.007 92.3986 188.488 91.604C189.231 90.5834 189.575 89.2819 189.362 88.0626C189.252 88.0626 189.142 88.0558 189.032 88.0489V88.0558Z" fill="#BC864D"/>
<path d="M179.929 87.6106C179.826 87.8366 179.736 88.0627 179.668 88.2956C179.489 90.2615 180.204 92.3576 181.071 94.1523C181.229 94.1455 181.381 94.1318 181.539 94.1249C181.47 92.8782 181.484 91.6521 181.594 90.467C181.807 89.4532 181.924 88.597 181.725 87.6859C181.14 87.6585 180.541 87.6311 179.936 87.6106H179.929Z" fill="#BC864D"/>
<path d="M222.078 89.5971C222.058 89.2066 222.03 88.8093 221.989 88.4189C221.803 86.5146 221.411 84.6309 220.854 82.7745C220.812 82.6307 220.764 82.4937 220.723 82.3498C220.647 82.1032 220.565 81.8498 220.482 81.6032C220.282 81.0209 220.076 80.4387 219.849 79.8633C217.544 73.986 213.829 68.5814 210.375 64.3687C202.049 54.1965 188.832 45.3326 183.349 45.0038C173.826 44.401 158.779 55.9912 148.768 70.2391C146.153 73.9586 144.158 77.6233 142.789 81.1648C142.568 81.7265 142.369 82.2813 142.183 82.8362C142.142 82.9526 142.101 83.0759 142.066 83.1924C142.032 83.302 141.991 83.4184 141.956 83.528C141.378 85.3844 140.979 87.1996 140.759 88.9669C140.711 89.3573 140.67 89.7409 140.642 90.1314C140.484 92.1316 140.573 94.0564 140.91 95.8922C141.02 96.5019 141.158 97.1047 141.323 97.6938C141.564 98.55 141.853 99.3857 142.211 100.194C143.394 102.907 147.206 105.311 149.394 106.462C149.408 106.462 149.414 106.475 149.428 106.475C149.703 106.626 149.999 106.77 150.302 106.914C150.309 106.914 150.316 106.921 150.323 106.927C150.467 106.996 150.598 107.051 150.694 107.092L151.307 107.345C152.518 107.852 153.04 108.037 154.403 108.188C155.208 108.345 156.075 108.476 157.017 108.558C157.045 108.558 157.072 108.558 157.1 108.565C157.465 108.599 157.836 108.619 158.221 108.64C159.026 108.674 159.873 108.702 160.733 108.715C161.084 108.743 161.469 108.763 161.868 108.77C162.143 108.106 162.432 107.441 162.728 106.791C163.093 105.989 163.471 105.201 163.863 104.427C163.437 104.427 163.01 104.427 162.597 104.427C162.116 104.427 161.641 104.414 161.173 104.407C161.09 104.407 161.008 104.407 160.925 104.407C160.733 104.407 160.547 104.4 160.354 104.393C160.251 104.393 160.148 104.393 160.052 104.386C159.494 104.372 158.944 104.352 158.414 104.331C157.196 104.277 156.137 104.14 155.201 103.955C155.105 103.934 155.001 103.92 154.905 103.9C153.997 103.708 153.219 103.461 152.552 103.181C152.263 103.064 151.981 102.941 151.733 102.811C150.123 101.996 149.277 101.03 148.795 100.393C148.713 100.283 148.637 100.18 148.568 100.091C148.231 99.6254 148.169 98.6253 148.603 97.3444C148.685 97.1046 148.754 96.8718 148.871 96.6115C149.132 96.0498 149.49 95.4812 149.924 94.9058C150.041 94.7551 150.171 94.6044 150.302 94.4469C150.405 94.3236 150.508 94.2003 150.619 94.077C151.21 93.4331 151.905 92.796 152.738 92.1864C152.82 92.1247 152.917 92.0631 152.999 92.0014C153.323 91.7754 153.66 91.5493 154.017 91.3301C154.492 91.0424 154.994 90.7684 155.524 90.5013C157.602 89.4669 160.141 88.6107 163.196 88.0832C163.629 88.0079 164.083 87.9462 164.538 87.8846C165.308 87.7818 166.106 87.6859 166.939 87.6243C168.762 87.4873 170.778 87.4325 172.856 87.4325C172.89 87.4325 172.932 87.4325 172.966 87.4325C173.283 87.4325 173.606 87.4325 173.929 87.4325C175.925 87.4462 177.961 87.5078 179.929 87.59C180.534 87.6174 181.126 87.638 181.718 87.6654C183.252 87.7339 184.725 87.8161 186.08 87.8846L188.11 87.9873L189.039 88.0353C189.156 88.0353 189.259 88.0421 189.369 88.049C193.6 88.2339 196.531 88.0627 198.884 87.9257H198.898C199.366 87.8983 199.806 87.8709 200.226 87.8503C203.198 87.6996 205.228 87.7681 208.792 89.0628C208.902 89.1039 209.026 89.1518 209.157 89.1998C209.446 89.3094 209.783 89.4395 210.134 89.5834C210.237 89.6245 210.34 89.6724 210.443 89.7204C211.228 90.0629 212.081 90.4944 212.886 91.063C213.223 91.3027 213.547 91.5562 213.842 91.837C214.035 92.0151 214.221 92.2069 214.393 92.4056C214.826 92.9193 215.163 93.4947 215.356 94.1523C215.356 94.1523 215.397 94.3236 215.439 94.577C215.542 95.2072 215.638 96.4197 215.129 97.3923C215.033 97.4745 214.943 97.5499 214.868 97.6115C213.602 98.6733 212.274 99.7898 210.423 100.769C210.251 100.831 210.051 100.893 209.866 100.961C207.987 101.605 205.531 102.153 202.29 102.509C202.16 102.523 202.022 102.537 201.891 102.55C201.341 102.605 200.77 102.66 200.178 102.708C199.751 102.742 199.311 102.77 198.857 102.797C199.187 103.324 199.511 103.859 199.827 104.4C199.958 104.626 200.089 104.859 200.212 105.092C200.254 105.16 200.288 105.229 200.329 105.297C200.536 105.681 200.742 106.064 200.942 106.455C201.079 106.729 201.21 107.003 201.348 107.284C201.389 107.373 201.437 107.469 201.478 107.558C206.267 107.071 209.583 106.023 212.109 104.756C215.053 103.633 217.159 102.112 218.48 100.208C219.202 99.5364 220.186 98.4952 220.922 97.0772C221.246 96.4539 221.528 95.7484 221.714 94.9743C221.782 94.7003 221.837 94.4195 221.886 94.1249C222.106 92.6111 222.161 91.0972 222.078 89.5902V89.5971ZM174.163 77.1507C168.143 72.3352 167.173 63.5741 172.01 57.5804C174.397 54.6212 177.755 52.895 181.264 52.4771C180.645 53.0183 180.053 53.6074 179.516 54.2718C174.686 60.2655 175.649 69.0335 181.67 73.8422C184.718 76.2808 188.481 77.2261 192.073 76.8014C187.064 81.1374 179.516 81.4319 174.163 77.1507Z" fill="#7A2A0E"/>
<path d="M181.539 94.1249C182.475 94.0632 183.404 93.9673 184.339 93.8235C184.676 93.7892 185.02 93.7413 185.358 93.7002C187.146 92.3028 187.525 90.1656 188.103 88.0079L186.073 87.9051C184.725 87.8366 183.245 87.7544 181.711 87.6859C181.911 88.597 181.794 89.4532 181.58 90.467C181.477 91.652 181.456 92.8713 181.525 94.1249H181.539Z" fill="#F6ECD3"/>
<path d="M203.212 101.352C203.088 101.338 202.964 101.324 202.834 101.317C202.139 101.242 201.451 101.139 200.769 101.009C200.302 100.92 199.841 100.824 199.386 100.708C198.52 100.488 197.687 100.228 196.889 99.9336C197.508 100.769 198.1 101.626 198.657 102.502C198.726 102.605 198.788 102.715 198.857 102.817C199.304 102.79 199.751 102.763 200.178 102.728C200.776 102.68 201.341 102.632 201.891 102.571C202.022 102.557 202.159 102.543 202.29 102.53C205.531 102.174 207.987 101.626 209.865 100.982C207.767 101.475 205.469 101.571 203.212 101.358V101.352Z" fill="#F6ECD3"/>
<path d="M192.231 94.8852C192.816 95.3031 193.352 95.7689 193.834 96.221C194.233 96.6525 194.625 97.0978 195.004 97.5498C198.196 97.2211 201.079 96.3306 203.632 94.9469C206.095 93.6043 208.262 91.8096 210.134 89.597C209.783 89.4532 209.446 89.323 209.157 89.2134C209.026 89.1655 208.902 89.1175 208.792 89.0764C205.228 87.7818 203.198 87.7202 200.226 87.864C199.971 91.6246 195.767 94.9263 192.238 94.8784L192.231 94.8852Z" fill="#F6ECD3"/>
<path d="M159.136 93.8371C161.861 95.6729 165.129 96.7826 168.549 97.3306C169.443 96.3442 170.372 95.529 171.328 94.9399C167.599 94.7892 163.56 91.8232 163.203 88.09C160.148 88.6174 157.602 89.4737 155.531 90.508C156.597 91.6862 157.774 92.789 159.143 93.8371H159.136Z" fill="#F6ECD3"/>
<path d="M179.929 87.6105C177.961 87.5283 175.925 87.4736 173.929 87.453C174.308 88.6586 174.493 89.7614 174.831 91.015C175.312 92.2685 176.262 93.3782 177.514 94.1523C178.697 94.2208 179.881 94.2208 181.064 94.1523C180.204 92.3507 179.482 90.2615 179.661 88.2955C179.729 88.0626 179.819 87.8366 179.922 87.6105H179.929Z" fill="#F6ECD3"/>
<path d="M171.789 94.6729C172.787 94.1386 173.805 93.8577 174.837 93.8851C175.374 93.9673 175.911 94.0221 176.447 94.0701C174.025 92.8987 172.051 90.0012 172.966 87.4462C172.931 87.4462 172.89 87.4462 172.856 87.4462C170.778 87.4462 168.769 87.501 166.939 87.638C166.106 87.6996 165.315 87.7955 164.537 87.8983C165.095 89.1861 165.679 90.4122 166.526 91.6178C167.785 93.1727 169.684 94.2619 171.782 94.6797L171.789 94.6729Z" fill="#F6ECD3"/>
<path d="M188.488 91.6041C188.007 92.3986 187.353 93.0562 186.617 93.5563C187.484 93.4741 188.378 93.4535 189.321 93.6042C190.263 93.7549 191.116 94.1454 191.887 94.6454C195.527 93.9193 197.474 91.104 198.884 87.9462C196.531 88.0832 193.607 88.2476 189.369 88.0695C189.582 89.2888 189.238 90.5834 188.495 91.6109L188.488 91.6041Z" fill="#F6ECD3"/>
<path d="M148.568 100.091C148.63 100.18 148.713 100.283 148.795 100.393C149.284 101.03 150.123 101.995 151.733 102.811C151.988 102.941 152.263 103.064 152.552 103.18C153.226 103.454 153.997 103.701 154.905 103.9C155.001 103.92 155.104 103.934 155.201 103.955C156.136 104.139 157.196 104.276 158.414 104.331C158.944 104.359 159.494 104.372 160.051 104.386C160.155 104.386 160.258 104.386 160.354 104.393C160.547 104.393 160.733 104.407 160.925 104.407C161.008 104.407 161.09 104.407 161.173 104.407C161.641 104.413 162.116 104.42 162.597 104.427C163.01 104.427 163.437 104.427 163.863 104.427C164.572 103.037 165.329 101.715 166.12 100.502C164.785 100.879 163.382 101.153 161.964 101.304C161.441 101.358 160.918 101.399 160.395 101.42C159.673 101.454 158.957 101.447 158.249 101.413C158.111 101.406 157.967 101.399 157.829 101.386C154.169 101.119 150.763 99.8856 148.596 97.3237C148.162 98.5978 148.224 99.6048 148.561 100.071L148.568 100.091Z" fill="#F6ECD3"/>
<path d="M202.648 97.591C202.221 97.6937 201.788 97.7896 201.354 97.8718C199.414 98.2417 197.453 98.3856 195.63 98.3034C195.761 98.4609 195.891 98.6253 196.015 98.7829C197.467 99.1254 198.891 99.3377 200.302 99.4062C200.708 99.4268 201.107 99.4405 201.506 99.4405C202.558 99.4405 203.604 99.3583 204.629 99.2076C204.801 99.1802 204.973 99.1596 205.139 99.1322C208.813 98.5089 212.274 96.9471 215.439 94.5907C215.397 94.3372 215.356 94.1728 215.356 94.166C215.163 93.5084 214.819 92.9262 214.393 92.4193C214.221 92.2206 214.035 92.0288 213.842 91.8507C213.54 91.5699 213.223 91.3096 212.886 91.0767C210.856 94.3852 206.886 96.5429 202.648 97.591Z" fill="#F6ECD3"/>
<path d="M154.114 97.4196C154.43 97.5703 154.754 97.721 155.077 97.8649C155.882 98.2211 156.721 98.543 157.616 98.8307C158.187 98.9746 158.772 99.091 159.357 99.1869C159.79 99.2554 160.223 99.3102 160.657 99.3513C162.776 99.55 164.964 99.4335 167.138 99.0705C167.331 98.8102 167.524 98.5636 167.716 98.3238C164.675 98.2622 161.386 97.6114 158.51 96.351C157.733 96.0085 156.99 95.6249 156.281 95.2002C154.905 94.3645 153.694 93.3713 152.744 92.2C151.919 92.8096 151.217 93.4466 150.625 94.0905C150.515 94.2138 150.412 94.3371 150.309 94.4604C150.178 94.6111 150.047 94.7618 149.93 94.9194C151.272 95.8852 152.648 96.7209 154.121 97.4333L154.114 97.4196Z" fill="#F6ECD3"/>
<path d="M174.163 77.1506C179.523 81.4319 187.071 81.1373 192.073 76.8013C188.474 77.226 184.718 76.2738 181.67 73.8421C175.649 69.0266 174.679 60.2655 179.516 54.2717C180.053 53.6073 180.638 53.0182 181.264 52.4771C177.755 52.8949 174.397 54.6211 172.01 57.5803C167.173 63.574 168.143 72.3419 174.163 77.1506Z" fill="#F6ECD3"/>
<path d="M198.341 109.654C198.128 109.037 197.907 108.428 197.68 107.818C197.405 107.078 197.123 106.345 196.834 105.619C196.421 104.64 196.022 103.749 195.637 102.934C189.94 90.9122 187.167 96.3031 174.776 94.2755C173.909 94.2824 173.069 94.4879 172.257 94.8578C172.202 94.8852 172.147 94.9057 172.092 94.9331C170.984 95.4674 169.946 96.3168 168.969 97.3922C168.7 97.6868 168.439 98.0019 168.184 98.3307C168.019 98.5362 167.861 98.7485 167.703 98.9677C167.393 99.3993 167.09 99.8445 166.794 100.317C166.01 101.571 165.287 102.954 164.62 104.427C164.62 104.427 164.62 104.434 164.62 104.441C163.987 105.831 163.402 107.304 162.879 108.797C162.811 108.982 162.749 109.167 162.687 109.359C160.54 115.627 159.329 122.278 159.205 125.909C159.205 126.032 159.198 126.148 159.198 126.265C159.123 129.032 159.198 132.491 160.967 134.601C162.914 136.19 165.528 137.41 168.494 138.3C165.48 120.956 176.998 109.859 180.362 109.859C186.225 109.859 195.217 119.113 193.366 138.876C194.405 138.615 195.396 138.328 196.277 137.985C198.183 137.108 199.703 136.238 200.267 134.307C201.238 131.245 201.582 128.087 201.499 124.915C201.354 119.757 200.047 114.551 198.341 109.64V109.654Z" fill="#F6ECD3"/>
<path d="M204.327 115.504C204.285 115.332 204.237 115.161 204.189 114.983C203.756 113.339 203.219 111.722 202.586 110.14C202.338 109.517 202.077 108.893 201.795 108.284C201.685 108.037 201.581 107.804 201.471 107.565C201.43 107.475 201.382 107.38 201.341 107.291C201.21 107.017 201.072 106.736 200.935 106.462C200.735 106.071 200.536 105.688 200.322 105.304C200.281 105.236 200.247 105.167 200.205 105.099C200.082 104.866 199.951 104.64 199.82 104.407C199.511 103.866 199.187 103.331 198.85 102.804C198.781 102.701 198.719 102.591 198.65 102.489C198.093 101.612 197.501 100.756 196.882 99.92C196.6 99.5364 196.304 99.1596 196.008 98.7829C195.878 98.6185 195.754 98.4609 195.623 98.3034C195.417 98.0499 195.21 97.8033 194.997 97.5499C194.612 97.0978 194.226 96.6525 193.827 96.221C193.346 95.762 192.809 95.2962 192.224 94.8852C192.107 94.803 191.99 94.7208 191.873 94.6455C191.103 94.1454 190.25 93.755 189.307 93.6043C188.371 93.4536 187.477 93.481 186.603 93.5563C186.176 93.5974 185.757 93.6454 185.344 93.7002C185 93.7413 184.663 93.7892 184.325 93.8235C183.397 93.9605 182.461 94.0564 181.525 94.1249C181.367 94.1386 181.216 94.1454 181.057 94.1523C179.874 94.2139 178.69 94.2208 177.507 94.1523C177.149 94.1317 176.791 94.1043 176.434 94.0701C175.897 94.0221 175.36 93.9605 174.824 93.8851C173.792 93.8577 172.773 94.1386 171.776 94.6729C171.617 94.7551 171.466 94.8441 171.315 94.94C170.365 95.5291 169.436 96.3443 168.535 97.3307C168.253 97.6389 167.978 97.9677 167.702 98.3171C167.51 98.5568 167.317 98.8103 167.125 99.0637C166.78 99.5227 166.45 100.009 166.12 100.516C165.329 101.728 164.572 103.05 163.863 104.441C163.471 105.208 163.093 105.996 162.728 106.804C162.432 107.455 162.143 108.119 161.868 108.784C161.579 109.469 161.304 110.167 161.042 110.859C158.751 116.874 157.313 122.936 157.182 126.155C157.127 126.738 157.093 127.32 157.079 127.895C157.052 128.957 157.1 130.005 157.244 131.005C157.767 134.56 159.529 137.581 163.519 139.157C174.184 143.486 186.486 144.726 197.632 141.328C201.327 140.157 204.003 137.095 204.746 133.19C204.76 133.142 204.767 133.087 204.774 133.04C204.918 132.341 205.049 131.642 205.152 130.937C205.324 129.779 205.441 128.614 205.51 127.45C205.737 123.415 205.311 119.394 204.327 115.504ZM200.267 134.32C199.703 136.245 198.183 137.115 196.277 137.999C195.389 138.335 194.398 138.629 193.366 138.889C195.217 119.127 186.224 109.873 180.362 109.873C176.998 109.873 165.48 120.963 168.494 138.314C165.521 137.423 162.907 136.197 160.967 134.615C159.191 132.498 159.116 129.046 159.198 126.279C159.198 126.162 159.198 126.046 159.205 125.922C159.329 122.285 160.54 115.641 162.687 109.373C162.749 109.188 162.817 108.996 162.879 108.811C163.409 107.318 163.987 105.845 164.62 104.455C164.62 104.455 164.62 104.448 164.62 104.441C165.287 102.968 166.017 101.578 166.794 100.331C167.09 99.8583 167.393 99.4062 167.702 98.9815C167.861 98.7623 168.019 98.55 168.184 98.3445C168.439 98.0157 168.707 97.7006 168.968 97.406C169.945 96.3237 170.991 95.4812 172.092 94.9469C172.147 94.9195 172.202 94.8989 172.257 94.8715C173.062 94.5016 173.902 94.2961 174.776 94.2893C187.167 96.3169 189.933 90.9259 195.637 102.948C196.022 103.763 196.421 104.653 196.834 105.633C197.123 106.359 197.405 107.092 197.68 107.832C197.907 108.441 198.128 109.051 198.341 109.667C200.054 114.579 201.354 119.785 201.499 124.943C201.588 128.114 201.237 131.272 200.267 134.334V134.32Z" fill="#693F21"/>
</g>
</g>
<defs>
<clipPath id="clip0_1_2">
<rect width="361" height="294" fill="white"/>
</clipPath>
<clipPath id="clip1_1_2">
<rect width="361" height="289" fill="white" transform="translate(0 5)"/>
</clipPath>
</defs>
</svg>
